<?xml version="1.0" encoding="UTF-8" standalone="no"?>
<!DOCTYPE svg PUBLIC "-//W3C//DTD SVG 1.1//EN" "http://www.w3.org/Graphics/SVG/1.1/DTD/svg11.dtd">
<svg width="100%" height="100%" viewBox="0 0 228 228" version="1.1" xmlns="http://www.w3.org/2000/svg" xmlns:xlink="http://www.w3.org/1999/xlink" xml:space="preserve" xmlns:serif="http://www.serif.com/" style="fill-rule:evenodd;clip-rule:evenodd;stroke-linejoin:round;stroke-miterlimit:2;">
    <g transform="matrix(1,0,0,1,-5788.38,-5737.93)">
        <g transform="matrix(1.22807,0.329061,-0.329061,1.22807,593.467,-3571.6)">
            <rect x="5878.38" y="6005.51" width="145.813" height="145.813" style="fill:rgb(255,0,57);fill-opacity:0;"/>
            <g transform="matrix(0.786539,0,0,0.786539,1581.25,1199.13)">
                <g transform="matrix(0.939594,-0.34229,0.34229,0.939594,-1748.99,2303.74)">
                    <ellipse cx="5538.9" cy="6225.14" rx="50.331" ry="22.619"/>
                </g>
                <g transform="matrix(1,0,0,1,71.7753,48.6839)">
                    <path d="M5557.2,6189.27C5563.9,6191.52 5570.63,6189.82 5576.94,6199.53C5570.97,6198.71 5563.9,6200.63 5559.1,6204.09L5557.2,6189.27Z"/>
                </g>
                <g transform="matrix(1,0,0,1,71.7753,48.6839)">
                    <path d="M5482.66,6208.25L5488.23,6225.91C5480.42,6236.75 5466.4,6243.02 5455.82,6245.79C5450.19,6247.27 5444.19,6246.16 5439.45,6242.78C5437.04,6241.09 5434.26,6239.1 5431.53,6237.16C5429.74,6235.87 5428.89,6233.63 5429.38,6231.48C5429.86,6229.32 5431.6,6227.67 5433.77,6227.29C5451.6,6224.11 5470.63,6215.18 5482.66,6208.25Z"/>
                </g>
                <g transform="matrix(0.980359,0.19722,-0.19722,0.980359,1558.05,-838.773)">
                    <path d="M5305.15,6107.26C5309.95,6108.31 5314.16,6111.17 5316.91,6115.26C5325.69,6128.33 5335.64,6138.41 5346.8,6145.46L5309.76,6169.69C5276.56,6151.08 5254.83,6126.05 5255.6,6088.43C5255.63,6087.2 5256.4,6086.11 5257.55,6085.68C5258.69,6085.24 5259.99,6085.53 5260.83,6086.43C5270.59,6095.94 5285.3,6102.91 5305.15,6107.26Z"/>
                </g>
                <g transform="matrix(-0.716283,0.179894,0.179894,0.716283,8285.47,867.511)">
                    <path d="M5302.44,6106.64C5309.12,6108.24 5314.89,6112.43 5318.47,6118.28C5326.88,6132.04 5336.31,6146.17 5346.8,6152.81L5309.76,6169.69C5277.3,6151.5 5255.81,6127.16 5255.59,6090.93C5255.58,6089.28 5256.57,6087.78 5258.1,6087.14C5259.62,6086.5 5261.38,6086.85 5262.56,6088.01C5271.8,6096.3 5285.06,6102.53 5302.44,6106.64Z"/>
                </g>
            </g>
        </g>
    </g>
</svg>
