<?xml version="1.0" encoding="UTF-8" standalone="no"?>
<!DOCTYPE svg PUBLIC "-//W3C//DTD SVG 1.1//EN" "http://www.w3.org/Graphics/SVG/1.1/DTD/svg11.dtd">
<svg width="100%" height="100%" viewBox="0 0 2623 722" version="1.1" xmlns="http://www.w3.org/2000/svg" xmlns:xlink="http://www.w3.org/1999/xlink" xml:space="preserve" xmlns:serif="http://www.serif.com/" style="fill-rule:evenodd;clip-rule:evenodd;stroke-linecap:square;stroke-linejoin:round;stroke-miterlimit:1.5;">
    <g transform="matrix(1,0,0,1,-1383.78,-5301.08)">
        <g transform="matrix(2.03693,0,0,0.500745,-1823.97,2606.41)">
            <path d="M2844.14,6041.7C2844.14,6041.7 2844.14,6431.09 2844.14,6654.39C2844.14,6694.89 2840.19,6733.72 2833.15,6762.36C2826.11,6791 2816.56,6807.08 2806.61,6807.08C2641.92,6807.08 1979.38,6807.08 1705.48,6807.08C1639.52,6807.08 1586.05,6589.58 1586.05,6321.28C1586.05,6321.28 1586.05,6321.28 1586.05,6321.28C1971.64,6438.46 2351.02,6427.91 2742.9,6246.8C2748.79,6244.08 2774.32,6061.58 2780.22,6058.78C2804.79,6047.11 2819.55,6054.73 2844.14,6041.7Z" style="fill:white;"/>
        </g>
        <g transform="matrix(2.03693,0,0,0.500745,-1823.97,2606.41)">
            <path d="M2842.94,6692.9C2838.74,6758.59 2824.07,6807.08 2806.61,6807.08L1705.48,6807.08C1676.17,6807.08 1649.33,6764.15 1628.55,6692.9L2842.94,6692.9Z" style="fill:rgb(238,101,75);"/>
        </g>
        <g transform="matrix(1,0,0,1,0,15.5392)">
            <g transform="matrix(0.649426,0,0,0.649426,373.197,3542.5)">
                <path d="M4660.04,3214.93C4643.65,3215.65 4626.9,3216.37 4609.82,3217.11C4605.63,3205.8 4599.86,3195.25 4592.79,3185.73C4620.5,3184.55 4647.39,3183.38 4673.32,3182.25C4667.45,3192.34 4662.94,3203.32 4660.04,3214.93ZM4766.75,3120.16L4766.75,3118.22C4766.75,3109.37 4773.94,3102.18 4782.79,3102.18C4791.65,3102.18 4798.83,3109.37 4798.83,3118.22L4798.83,3120.16C4793.58,3119.49 4788.23,3119.15 4782.79,3119.15C4777.36,3119.15 4772.01,3119.49 4766.75,3120.16ZM4886.11,3172.66C4982.85,3168.16 5041.21,3165.26 5041.21,3165.26C5050.05,3164.82 5057.59,3171.64 5058.03,3180.48C5058.46,3189.33 5051.64,3196.86 5042.8,3197.3C5042.8,3197.3 4990.28,3199.91 4902.28,3204.02C4898.36,3192.75 4892.88,3182.22 4886.11,3172.66ZM4903.95,3282.18C5008.48,3277.58 5072.05,3274.59 5072.05,3274.59C5080.89,3274.17 5088.41,3281.01 5088.82,3289.85C5089.24,3298.7 5082.4,3306.21 5073.56,3306.63C5073.56,3306.63 5003.13,3309.95 4888.64,3314.96C4895.22,3304.93 4900.42,3293.91 4903.95,3282.18ZM4798.83,3371.17L4798.83,3403.9C4798.83,3412.76 4791.65,3419.94 4782.79,3419.94C4773.94,3419.94 4766.75,3412.76 4766.75,3403.9L4766.75,3371.17C4772.01,3371.84 4777.36,3372.18 4782.79,3372.18C4788.23,3372.18 4793.58,3371.84 4798.83,3371.17ZM4683.24,3323.7C4656.1,3324.83 4627.98,3325.98 4599.04,3327.15C4605.22,3317.1 4610.03,3306.12 4613.21,3294.47C4630.87,3293.76 4648.21,3293.05 4665.18,3292.35C4669.7,3303.7 4675.81,3314.24 4683.24,3323.7ZM4369.28,3227.03C4352,3227.72 4334.57,3228.4 4317.03,3229.08C4312.47,3217.71 4306.31,3207.15 4298.83,3197.69C4327.44,3196.59 4355.75,3195.48 4383.66,3194.36C4377.41,3204.4 4372.53,3215.38 4369.28,3227.03ZM4475.12,3135.55L4475.12,3118.22C4475.12,3109.37 4482.31,3102.18 4491.16,3102.18C4500.02,3102.18 4507.2,3109.37 4507.2,3118.22L4507.2,3135.55C4501.95,3134.89 4496.6,3134.54 4491.16,3134.54C4485.73,3134.54 4480.38,3134.89 4475.12,3135.55ZM4507.2,3386.57L4507.2,3437.16C4507.2,3446.01 4500.02,3453.2 4491.16,3453.2C4482.31,3453.2 4475.12,3446.01 4475.12,3437.16L4475.12,3386.57C4480.38,3387.23 4485.73,3387.58 4491.16,3387.58C4496.6,3387.58 4501.95,3387.23 4507.2,3386.57ZM4388.79,3335.38C4362.71,3336.36 4336.31,3337.35 4309.67,3338.32C4315.38,3328.24 4319.75,3317.31 4322.54,3305.75C4339.16,3305.14 4355.69,3304.53 4372.1,3303.91C4376.18,3315.24 4381.83,3325.81 4388.79,3335.38ZM4094.03,3345.86C4037.2,3347.74 3980.26,3349.54 3923.94,3351.2L3923.94,3437.16C3923.94,3446.01 3916.75,3453.2 3907.9,3453.2C3899.05,3453.2 3891.86,3446.01 3891.86,3437.16L3891.86,3352.14C3802.46,3354.72 3714.96,3356.93 3632.31,3358.62L3632.31,3454.03C3632.31,3462.88 3625.12,3470.07 3616.27,3470.07C3607.41,3470.07 3600.23,3462.88 3600.23,3454.03L3600.23,3359.25C3507.11,3361.02 3420.85,3362.05 3345.86,3362.08L3345.86,3476.49L3300.95,3476.49L3300.95,3361.98C3250.46,3361.73 3196.02,3361.05 3138.77,3360.03C3145.18,3350.28 3150.29,3339.59 3153.83,3328.21C3205.58,3329.09 3254.91,3329.67 3300.95,3329.9L3300.95,3254.19C3254.86,3253.96 3205.48,3253.38 3153.67,3252.5C3150.01,3240.91 3144.72,3230.03 3138.08,3220.15C3195.58,3221.18 3250.26,3221.86 3300.95,3222.11L3300.95,2714.17L3345.86,2714.17L3345.86,3222.21C3421.26,3222.18 3507.49,3221.11 3600.23,3219.27L3600.23,3135.09C3600.23,3126.23 3607.41,3119.05 3616.27,3119.05C3625.12,3119.05 3632.31,3126.23 3632.31,3135.09L3632.31,3218.61C3715.16,3216.85 3802.67,3214.52 3891.86,3211.82L3891.86,3118.22C3891.86,3109.37 3899.05,3102.18 3907.9,3102.18C3916.75,3102.18 3923.94,3109.37 3923.94,3118.22L3923.94,3210.84C3980.59,3209.08 4037.77,3207.18 4094.73,3205.19C4087.98,3215.16 4082.61,3226.13 4078.9,3237.84C4027.18,3239.62 3975.34,3241.33 3923.94,3242.93L3923.94,3319.12C3975.27,3317.6 4027.11,3315.97 4078.9,3314.27C4082.48,3325.57 4087.6,3336.18 4094.03,3345.86ZM3600.23,3251.36C3507.5,3253.19 3421.26,3254.26 3345.86,3254.29L3345.86,3330C3420.85,3329.97 3507.11,3328.94 3600.23,3327.17L3600.23,3251.36ZM3891.86,3243.91C3802.66,3246.61 3715.16,3248.93 3632.31,3250.7L3632.31,3326.54C3714.96,3324.85 3802.46,3322.63 3891.86,3320.06L3891.86,3243.91ZM4183.49,3150.55L4183.49,3118.22C4183.49,3109.37 4190.68,3102.18 4199.53,3102.18C4208.38,3102.18 4215.57,3109.37 4215.57,3118.22L4215.57,3150.55C4210.32,3149.88 4204.96,3149.54 4199.53,3149.54C4194.1,3149.54 4188.74,3149.88 4183.49,3150.55ZM4215.57,3401.56L4215.57,3437.16C4215.57,3446.01 4208.38,3453.2 4199.53,3453.2C4190.68,3453.2 4183.49,3446.01 4183.49,3437.16L4183.49,3401.56C4188.74,3402.23 4194.1,3402.57 4199.53,3402.57C4204.96,3402.57 4210.32,3402.23 4215.57,3401.56ZM2924.11,3355.02C2897.38,3354.27 2870.38,3353.48 2843.21,3352.65C2850.28,3343.07 2856.04,3332.45 2860.21,3321.08C2877.08,3321.59 2893.87,3322.08 2910.56,3322.55C2913.57,3334.1 2918.17,3345 2924.11,3355.02ZM2914.23,3246.96C2897.51,3246.48 2880.68,3245.99 2863.77,3245.49C2860.74,3233.93 2856.12,3223.01 2850.15,3212.99C2877.42,3213.82 2904.51,3214.61 2931.33,3215.35C2924.22,3224.93 2918.43,3235.56 2914.23,3246.96ZM3016.97,3165.1L3016.97,3135.09C3016.97,3126.23 3024.15,3119.05 3033.01,3119.05C3041.86,3119.05 3049.05,3126.23 3049.05,3135.09L3049.05,3165.1C3043.79,3164.43 3038.44,3164.09 3033.01,3164.09C3027.57,3164.09 3022.22,3164.43 3016.97,3165.1ZM3049.05,3416.12L3049.05,3454.03C3049.05,3462.88 3041.86,3470.07 3033.01,3470.07C3024.15,3470.07 3016.97,3462.88 3016.97,3454.03L3016.97,3416.12C3022.22,3416.78 3027.57,3417.12 3033.01,3417.12C3038.44,3417.12 3043.79,3416.78 3049.05,3416.12ZM2634.72,3345.65C2607.84,3344.67 2581.01,3343.68 2554.31,3342.66C2560.89,3333.03 2566.16,3322.44 2569.9,3311.16C2586.52,3311.78 2603.19,3312.4 2619.89,3313.01C2623.29,3324.67 2628.32,3335.64 2634.72,3345.65ZM2621.39,3237.37C2604.59,3236.76 2587.81,3236.14 2571.07,3235.51C2567.61,3223.83 2562.51,3212.85 2556.03,3202.84C2582.97,3203.87 2610.05,3204.87 2637.18,3205.85C2630.53,3215.48 2625.19,3226.07 2621.39,3237.37ZM2725.33,3152.09L2725.33,3135.09C2725.33,3126.23 2732.52,3119.05 2741.37,3119.05C2750.23,3119.05 2757.41,3126.23 2757.41,3135.09L2757.41,3152.09C2752.16,3151.42 2746.81,3151.08 2741.37,3151.08C2735.94,3151.08 2730.59,3151.42 2725.33,3152.09ZM2757.41,3403.1L2757.41,3454.03C2757.41,3462.88 2750.23,3470.07 2741.37,3470.07C2732.52,3470.07 2725.33,3462.88 2725.33,3454.03L2725.33,3403.1C2730.59,3403.77 2735.94,3404.11 2741.37,3404.11C2746.81,3404.11 2752.16,3403.77 2757.41,3403.1ZM2331.67,3225.94C2315.59,3225.27 2299.65,3224.59 2283.89,3223.91C2279.97,3212.11 2274.36,3201.07 2267.34,3191.1C2294.16,3192.26 2321.51,3193.42 2349.28,3194.58C2342.01,3204.07 2336.05,3214.61 2331.67,3225.94ZM2433.7,3145.95L2433.7,3104.29C2433.7,3095.44 2440.89,3088.25 2449.74,3088.25C2458.6,3088.25 2465.78,3095.44 2465.78,3104.29L2465.78,3145.95C2460.53,3145.29 2455.18,3144.94 2449.74,3144.94C2444.31,3144.94 2438.96,3145.29 2433.7,3145.95ZM2465.78,3396.97L2465.78,3423.23C2465.78,3432.09 2458.6,3439.27 2449.74,3439.27C2440.89,3439.27 2433.7,3432.09 2433.7,3423.23L2433.7,3396.97C2438.96,3397.63 2444.31,3397.98 2449.74,3397.98C2455.18,3397.98 2460.53,3397.63 2465.78,3396.97ZM2339.8,3334.07C2316.49,3333.09 2293.49,3332.12 2270.86,3331.14C2276.98,3321.45 2281.81,3310.87 2285.13,3299.65C2298.89,3300.24 2312.79,3300.83 2326.8,3301.42C2329.62,3313.01 2334.03,3323.98 2339.8,3334.07ZM2051.1,3321.3C2023.49,3320.02 1997.12,3318.78 1972.19,3317.59C1978.73,3307.99 1983.99,3297.45 1987.71,3286.22C2004.46,3287.01 2021.82,3287.83 2039.72,3288.66C2042.03,3300.18 2045.89,3311.14 2051.1,3321.3ZM2047.73,3213.36C2027.42,3212.41 2007.8,3211.49 1988.93,3210.6C1985.46,3198.86 1980.33,3187.82 1973.81,3177.77C2003.06,3179.16 2034.27,3180.63 2067.14,3182.14C2059.24,3191.49 2052.67,3201.99 2047.73,3213.36ZM2142.07,3139.11L2142.07,3089.79C2142.07,3080.93 2149.26,3073.75 2158.11,3073.75C2166.96,3073.75 2174.15,3080.93 2174.15,3089.79L2174.15,3137.66C2170.73,3137.39 2167.28,3137.24 2163.79,3137.24C2156.38,3137.24 2149.13,3137.88 2142.07,3139.11ZM2174.15,3389.86L2174.15,3408.73C2174.15,3417.58 2166.96,3424.77 2158.11,3424.77C2149.26,3424.77 2142.07,3417.58 2142.07,3408.73L2142.07,3388.42C2149.13,3389.64 2156.38,3390.28 2163.79,3390.28C2167.28,3390.28 2170.73,3390.14 2174.15,3389.86ZM1750.33,3198.87C1730.6,3197.86 1719.94,3197.3 1719.94,3197.3C1711.1,3196.83 1704.3,3189.28 1704.77,3180.44C1705.24,3171.6 1712.79,3164.8 1721.63,3165.26C1721.63,3165.26 1738.32,3166.14 1768.6,3167.68C1761.1,3177.08 1754.92,3187.57 1750.33,3198.87ZM1850.44,3121.09L1850.44,3089.79C1850.44,3080.93 1857.63,3073.75 1866.48,3073.75C1875.33,3073.75 1882.52,3080.93 1882.52,3089.79L1882.52,3120.82C1877.62,3120.24 1872.63,3119.94 1867.57,3119.94C1861.76,3119.94 1856.04,3120.33 1850.44,3121.09ZM1882.52,3372.1L1882.52,3408.73C1882.52,3417.58 1875.33,3424.77 1866.48,3424.77C1857.63,3424.77 1850.44,3417.58 1850.44,3408.73L1850.44,3371.82C1856.04,3372.58 1861.76,3372.97 1867.57,3372.97C1872.63,3372.97 1877.62,3372.68 1882.52,3372.1ZM1756.46,3306.97C1732.82,3305.76 1719.94,3305.09 1719.94,3305.09C1711.1,3304.62 1704.3,3297.06 1704.77,3288.22C1705.24,3279.38 1712.79,3272.59 1721.63,3273.05C1721.63,3273.05 1729.46,3273.46 1744.12,3274.22C1746.72,3285.82 1750.91,3296.82 1756.46,3306.97ZM1698.33,2714.17L1743.24,2714.17L1743.24,3078.02L1698.33,3078.02L1698.33,2714.17ZM1970.85,3422.97C1970.85,3417.66 1975.17,3413.35 1980.48,3413.35C1985.79,3413.35 1990.1,3417.66 1990.1,3422.97L1990.1,3599.4C1990.1,3604.71 1985.79,3609.02 1980.48,3609.02C1975.17,3609.02 1970.85,3604.71 1970.85,3599.4L1970.85,3422.97ZM2583.7,3444.53C2583.7,3439.22 2588.02,3434.91 2593.33,3434.91C2598.64,3434.91 2602.95,3439.22 2602.95,3444.53L2602.95,3599.4C2602.95,3604.71 2598.64,3609.02 2593.33,3609.02C2588.02,3609.02 2583.7,3604.71 2583.7,3599.4L2583.7,3444.53ZM3196.55,3444.53C3196.55,3439.22 3200.87,3434.91 3206.18,3434.91C3211.49,3434.91 3215.8,3439.22 3215.8,3444.53L3215.8,3599.4C3215.8,3604.71 3211.49,3609.02 3206.18,3609.02C3200.87,3609.02 3196.55,3604.71 3196.55,3599.4L3196.55,3444.53Z"/>
            </g>
            <g transform="matrix(0.954556,0,0,1,41.3176,1752.64)">
                <path d="M1472.29,3616.59L1472.29,3572.01C1472.29,3564.95 1475.23,3558.18 1480.45,3553.19C1485.68,3548.2 1492.77,3545.4 1500.16,3545.4L2613.9,3545.4C2621.29,3545.4 2628.38,3548.2 2633.61,3553.19C2638.84,3558.18 2641.78,3564.95 2641.78,3572.01L2641.78,3616.59C2641.78,3641.07 2617.96,3660.94 2588.62,3660.94C2559.28,3660.94 2535.46,3641.07 2535.46,3616.59C2535.46,3641.07 2511.64,3660.94 2482.3,3660.94C2452.96,3660.94 2429.14,3641.07 2429.14,3616.59C2429.14,3641.07 2405.32,3660.94 2375.98,3660.94C2346.64,3660.94 2322.82,3641.07 2322.82,3616.59C2322.82,3641.07 2299.01,3660.94 2269.67,3660.94C2240.33,3660.94 2216.51,3641.07 2216.51,3616.59C2216.51,3641.07 2192.69,3660.94 2163.35,3660.94C2134.01,3660.94 2110.19,3641.07 2110.19,3616.59C2110.19,3641.07 2086.37,3660.94 2057.03,3660.94C2027.69,3660.94 2003.87,3641.07 2003.87,3616.59C2003.87,3641.07 1980.05,3660.94 1950.72,3660.94C1921.38,3660.94 1897.56,3641.07 1897.56,3616.59C1897.56,3641.07 1873.74,3660.94 1844.4,3660.94C1815.06,3660.94 1791.24,3641.07 1791.24,3616.59C1791.24,3641.07 1767.42,3660.94 1738.08,3660.94C1708.74,3660.94 1684.92,3641.07 1684.92,3616.59C1684.92,3641.07 1661.1,3660.94 1631.76,3660.94C1602.42,3660.94 1578.61,3641.07 1578.61,3616.59C1578.61,3641.07 1554.79,3660.94 1525.45,3660.94C1496.11,3660.94 1472.29,3641.07 1472.29,3616.59Z" style="fill:white;stroke:black;stroke-width:25.57px;"/>
            </g>
            <g transform="matrix(1.17648,0,0,0.795846,-302.089,2500.52)">
                <path d="M1523.88,4086.12L1495.55,4090.88L1495.55,3792.84C1495.55,3792.84 1803.98,3821.78 2436.48,3830.53C2915.83,3837.17 3380.99,3792.84 3380.99,3792.84L3397.99,4065.74L3369.51,4062.17L3355.29,3837.1C3248.59,3846.35 2847.61,3878.11 2436.21,3872.42C1916.74,3865.23 1615.5,3844.43 1523.88,3837.17C1523.88,3837.17 1523.88,4086.12 1523.88,4086.12Z"/>
            </g>
            <g transform="matrix(1.10853,0,0,1,-192.193,1713.37)">
                <path d="M3784.18,3948.71L3784.18,4189.98C3784.18,4247.21 3742.33,4293.61 3690.7,4293.61L1667.31,4293.61C1601.57,4293.61 1482.47,4249.46 1436.66,4116.55C1413.5,4049.38 1423.08,4035.68 1427.07,4029.97C1439.54,4012.14 1444.95,4022.55 1582.95,4030.07C2800.13,4096.41 3366.85,4036.33 3787,3948.83L3784.18,3948.71ZM1451.88,4055.05C1467.79,4170.96 1560.18,4260.27 1667.31,4260.27L3690.7,4260.27C3725.72,4260.27 3754.11,4228.8 3754.11,4189.98L3754.11,3989.82C3381.96,4072.07 2915.41,4085.81 2842.06,4087.97C2392.91,4101.2 1651.73,4071.75 1451.88,4055.05Z"/>
            </g>
            <g transform="matrix(1.10853,0,0,1,-302.647,1771.01)">
                <path d="M1643.8,4052.09C1643.8,4047.61 1645.46,4043.32 1648.39,4040.23C1651.32,4037.14 1655.27,4035.52 1659.31,4035.75C1864.56,4047.3 2199.33,4060.22 2655.32,4058.71C2754.46,4058.38 3026.42,4053.33 3132.03,4049.24C3136.12,4049.06 3140.1,4050.74 3143.05,4053.88C3146,4057.02 3147.67,4061.36 3147.67,4065.9C3147.67,4066.08 3147.67,4066.26 3147.67,4066.45C3147.67,4075.09 3141.51,4082.19 3133.71,4082.53C3029.32,4086.62 2755,4091.71 2655.41,4092.04C2198.87,4093.55 1863.57,4080.62 1657.8,4069.05C1649.95,4068.6 1643.8,4061.42 1643.8,4052.71C1643.8,4052.5 1643.8,4052.3 1643.8,4052.09Z"/>
            </g>
            <g transform="matrix(1.17141,0,0,1.27532,-730.813,650.87)">
                <path d="M3839.05,3975.71L3727.45,3995.34C3727.45,3995.34 3784.43,3987.92 3845.84,3937.2C3864.58,3921.72 3887.49,3888.99 3887.49,3888.99L4040.83,3873.31L4040.83,3954.56L3957.69,3965.38L4025.13,3942.16L4013.01,3942.16L4012.38,3902.59L3902.49,3915.13C3894.83,3925.09 3850.22,3964.91 3839.05,3975.71Z"/>
            </g>
            <g transform="matrix(0.354047,0,0,0.354047,905.311,3992.82)">
                <path d="M1922.73,4450.98C2050.81,4450.98 2154.8,4554.97 2154.8,4683.05C2154.8,4811.14 2050.81,4915.12 1922.73,4915.12C1794.65,4915.12 1690.66,4811.14 1690.66,4683.05C1690.66,4554.97 1794.65,4450.98 1922.73,4450.98ZM1922.73,4562.79C1856.35,4562.79 1802.47,4616.68 1802.47,4683.05C1802.47,4749.43 1856.35,4803.32 1922.73,4803.32C1989.11,4803.32 2043,4749.43 2043,4683.05C2043,4616.68 1989.11,4562.79 1922.73,4562.79Z" style="fill:white;"/>
                <path d="M1922.73,4450.98C2050.81,4450.98 2154.8,4554.97 2154.8,4683.05C2154.8,4811.14 2050.81,4915.12 1922.73,4915.12C1794.65,4915.12 1690.66,4811.14 1690.66,4683.05C1690.66,4554.97 1794.65,4450.98 1922.73,4450.98ZM1922.73,4486.29C1814.13,4486.29 1725.97,4574.46 1725.97,4683.05C1725.97,4791.65 1814.13,4879.82 1922.73,4879.82C2031.33,4879.82 2119.49,4791.65 2119.49,4683.05C2119.49,4574.46 2031.33,4486.29 1922.73,4486.29ZM1922.73,4527.48C2008.59,4527.48 2078.3,4597.19 2078.3,4683.05C2078.3,4768.91 2008.59,4838.62 1922.73,4838.62C1836.87,4838.62 1767.16,4768.91 1767.16,4683.05C1767.16,4597.19 1836.87,4527.48 1922.73,4527.48ZM1922.73,4562.79C1856.35,4562.79 1802.47,4616.68 1802.47,4683.05C1802.47,4749.43 1856.35,4803.32 1922.73,4803.32C1989.11,4803.32 2043,4749.43 2043,4683.05C2043,4616.68 1989.11,4562.79 1922.73,4562.79Z"/>
            </g>
            <g transform="matrix(0.354047,0,0,0.354047,1097.68,4004.05)">
                <path d="M1922.73,4450.98C2050.81,4450.98 2154.8,4554.97 2154.8,4683.05C2154.8,4811.14 2050.81,4915.12 1922.73,4915.12C1794.65,4915.12 1690.66,4811.14 1690.66,4683.05C1690.66,4554.97 1794.65,4450.98 1922.73,4450.98ZM1922.73,4562.79C1856.35,4562.79 1802.47,4616.68 1802.47,4683.05C1802.47,4749.43 1856.35,4803.32 1922.73,4803.32C1989.11,4803.32 2043,4749.43 2043,4683.05C2043,4616.68 1989.11,4562.79 1922.73,4562.79Z" style="fill:white;"/>
                <path d="M1922.73,4450.98C2050.81,4450.98 2154.8,4554.97 2154.8,4683.05C2154.8,4811.14 2050.81,4915.12 1922.73,4915.12C1794.65,4915.12 1690.66,4811.14 1690.66,4683.05C1690.66,4554.97 1794.65,4450.98 1922.73,4450.98ZM1922.73,4486.29C1814.13,4486.29 1725.97,4574.46 1725.97,4683.05C1725.97,4791.65 1814.13,4879.82 1922.73,4879.82C2031.33,4879.82 2119.49,4791.65 2119.49,4683.05C2119.49,4574.46 2031.33,4486.29 1922.73,4486.29ZM1922.73,4527.48C2008.59,4527.48 2078.3,4597.19 2078.3,4683.05C2078.3,4768.91 2008.59,4838.62 1922.73,4838.62C1836.87,4838.62 1767.16,4768.91 1767.16,4683.05C1767.16,4597.19 1836.87,4527.48 1922.73,4527.48ZM1922.73,4562.79C1856.35,4562.79 1802.47,4616.68 1802.47,4683.05C1802.47,4749.43 1856.35,4803.32 1922.73,4803.32C1989.11,4803.32 2043,4749.43 2043,4683.05C2043,4616.68 1989.11,4562.79 1922.73,4562.79Z"/>
            </g>
            <g transform="matrix(0.216692,0,0,0.216692,1242.73,4904.54)">
                <path d="M1922.73,4450.98C2050.81,4450.98 2154.8,4554.97 2154.8,4683.05C2154.8,4811.14 2050.81,4915.12 1922.73,4915.12C1794.65,4915.12 1690.66,4811.14 1690.66,4683.05C1690.66,4554.97 1794.65,4450.98 1922.73,4450.98ZM1922.73,4566.36C1858.32,4566.36 1806.03,4618.65 1806.03,4683.05C1806.03,4747.46 1858.32,4799.75 1922.73,4799.75C1987.14,4799.75 2039.43,4747.46 2039.43,4683.05C2039.43,4618.65 1987.14,4566.36 1922.73,4566.36Z"/>
            </g>
            <g transform="matrix(0.216692,0,0,0.216692,1640.73,4904.54)">
                <path d="M1922.73,4450.98C2050.81,4450.98 2154.8,4554.97 2154.8,4683.05C2154.8,4811.14 2050.81,4915.12 1922.73,4915.12C1794.65,4915.12 1690.66,4811.14 1690.66,4683.05C1690.66,4554.97 1794.65,4450.98 1922.73,4450.98ZM1922.73,4566.36C1858.32,4566.36 1806.03,4618.65 1806.03,4683.05C1806.03,4747.46 1858.32,4799.75 1922.73,4799.75C1987.14,4799.75 2039.43,4747.46 2039.43,4683.05C2039.43,4618.65 1987.14,4566.36 1922.73,4566.36Z"/>
            </g>
            <g transform="matrix(0.216692,0,0,0.216692,2038.73,4904.54)">
                <path d="M1922.73,4450.98C2050.81,4450.98 2154.8,4554.97 2154.8,4683.05C2154.8,4811.14 2050.81,4915.12 1922.73,4915.12C1794.65,4915.12 1690.66,4811.14 1690.66,4683.05C1690.66,4554.97 1794.65,4450.98 1922.73,4450.98ZM1922.73,4566.36C1858.32,4566.36 1806.03,4618.65 1806.03,4683.05C1806.03,4747.46 1858.32,4799.75 1922.73,4799.75C1987.14,4799.75 2039.43,4747.46 2039.43,4683.05C2039.43,4618.65 1987.14,4566.36 1922.73,4566.36Z"/>
            </g>
            <g transform="matrix(0.216692,0,0,0.216692,2436.73,4904.54)">
                <path d="M1922.73,4450.98C2050.81,4450.98 2154.8,4554.97 2154.8,4683.05C2154.8,4811.14 2050.81,4915.12 1922.73,4915.12C1794.65,4915.12 1690.66,4811.14 1690.66,4683.05C1690.66,4554.97 1794.65,4450.98 1922.73,4450.98ZM1922.73,4566.36C1858.32,4566.36 1806.03,4618.65 1806.03,4683.05C1806.03,4747.46 1858.32,4799.75 1922.73,4799.75C1987.14,4799.75 2039.43,4747.46 2039.43,4683.05C2039.43,4618.65 1987.14,4566.36 1922.73,4566.36Z"/>
            </g>
            <g transform="matrix(0.315337,0,0,0.315337,2264.8,4805.15)">
                <path d="M1866.48,3089.79L1866.48,3408.73" style="fill:none;stroke:black;stroke-width:39.64px;stroke-linecap:round;"/>
            </g>
            <g transform="matrix(0.216692,0,0,0.216692,2834.73,4904.54)">
                <path d="M1922.73,4450.98C2050.81,4450.98 2154.8,4554.97 2154.8,4683.05C2154.8,4811.14 2050.81,4915.12 1922.73,4915.12C1794.65,4915.12 1690.66,4811.14 1690.66,4683.05C1690.66,4554.97 1794.65,4450.98 1922.73,4450.98ZM1922.73,4566.36C1858.32,4566.36 1806.03,4618.65 1806.03,4683.05C1806.03,4747.46 1858.32,4799.75 1922.73,4799.75C1987.14,4799.75 2039.43,4747.46 2039.43,4683.05C2039.43,4618.65 1987.14,4566.36 1922.73,4566.36Z"/>
            </g>
            <g transform="matrix(0.315337,0,0,0.315337,2662.8,4805.15)">
                <path d="M1866.48,3089.79L1866.48,3408.73" style="fill:none;stroke:black;stroke-width:39.64px;stroke-linecap:round;"/>
            </g>
            <g transform="matrix(0.354047,0,0,0.354047,1283.39,4009.05)">
                <path d="M1922.73,4450.98C2050.81,4450.98 2154.8,4554.97 2154.8,4683.05C2154.8,4811.14 2050.81,4915.12 1922.73,4915.12C1794.65,4915.12 1690.66,4811.14 1690.66,4683.05C1690.66,4554.97 1794.65,4450.98 1922.73,4450.98ZM1922.73,4562.79C1856.35,4562.79 1802.47,4616.68 1802.47,4683.05C1802.47,4749.43 1856.35,4803.32 1922.73,4803.32C1989.11,4803.32 2043,4749.43 2043,4683.05C2043,4616.68 1989.11,4562.79 1922.73,4562.79Z" style="fill:white;"/>
                <path d="M1922.73,4450.98C2050.81,4450.98 2154.8,4554.97 2154.8,4683.05C2154.8,4811.14 2050.81,4915.12 1922.73,4915.12C1794.65,4915.12 1690.66,4811.14 1690.66,4683.05C1690.66,4554.97 1794.65,4450.98 1922.73,4450.98ZM1922.73,4486.29C1814.13,4486.29 1725.97,4574.46 1725.97,4683.05C1725.97,4791.65 1814.13,4879.82 1922.73,4879.82C2031.33,4879.82 2119.49,4791.65 2119.49,4683.05C2119.49,4574.46 2031.33,4486.29 1922.73,4486.29ZM1922.73,4527.48C2008.59,4527.48 2078.3,4597.19 2078.3,4683.05C2078.3,4768.91 2008.59,4838.62 1922.73,4838.62C1836.87,4838.62 1767.16,4768.91 1767.16,4683.05C1767.16,4597.19 1836.87,4527.48 1922.73,4527.48ZM1922.73,4562.79C1856.35,4562.79 1802.47,4616.68 1802.47,4683.05C1802.47,4749.43 1856.35,4803.32 1922.73,4803.32C1989.11,4803.32 2043,4749.43 2043,4683.05C2043,4616.68 1989.11,4562.79 1922.73,4562.79Z"/>
            </g>
            <g transform="matrix(0.354047,0,0,0.354047,2798.53,3992.3)">
                <path d="M1922.73,4450.98C2050.81,4450.98 2154.8,4554.97 2154.8,4683.05C2154.8,4811.14 2050.81,4915.12 1922.73,4915.12C1794.65,4915.12 1690.66,4811.14 1690.66,4683.05C1690.66,4554.97 1794.65,4450.98 1922.73,4450.98ZM1922.73,4562.79C1856.35,4562.79 1802.47,4616.68 1802.47,4683.05C1802.47,4749.43 1856.35,4803.32 1922.73,4803.32C1989.11,4803.32 2043,4749.43 2043,4683.05C2043,4616.68 1989.11,4562.79 1922.73,4562.79Z" style="fill:white;"/>
                <path d="M1922.73,4450.98C2050.81,4450.98 2154.8,4554.97 2154.8,4683.05C2154.8,4811.14 2050.81,4915.12 1922.73,4915.12C1794.65,4915.12 1690.66,4811.14 1690.66,4683.05C1690.66,4554.97 1794.65,4450.98 1922.73,4450.98ZM1922.73,4486.29C1814.13,4486.29 1725.97,4574.46 1725.97,4683.05C1725.97,4791.65 1814.13,4879.82 1922.73,4879.82C2031.33,4879.82 2119.49,4791.65 2119.49,4683.05C2119.49,4574.46 2031.33,4486.29 1922.73,4486.29ZM1922.73,4527.48C2008.59,4527.48 2078.3,4597.19 2078.3,4683.05C2078.3,4768.91 2008.59,4838.62 1922.73,4838.62C1836.87,4838.62 1767.16,4768.91 1767.16,4683.05C1767.16,4597.19 1836.87,4527.48 1922.73,4527.48ZM1922.73,4562.79C1856.35,4562.79 1802.47,4616.68 1802.47,4683.05C1802.47,4749.43 1856.35,4803.32 1922.73,4803.32C1989.11,4803.32 2043,4749.43 2043,4683.05C2043,4616.68 1989.11,4562.79 1922.73,4562.79Z"/>
            </g>
            <g transform="matrix(0.354047,0,0,0.354047,2609.14,4002.3)">
                <path d="M1922.73,4450.98C2050.81,4450.98 2154.8,4554.97 2154.8,4683.05C2154.8,4811.14 2050.81,4915.12 1922.73,4915.12C1794.65,4915.12 1690.66,4811.14 1690.66,4683.05C1690.66,4554.97 1794.65,4450.98 1922.73,4450.98ZM1922.73,4562.79C1856.35,4562.79 1802.47,4616.68 1802.47,4683.05C1802.47,4749.43 1856.35,4803.32 1922.73,4803.32C1989.11,4803.32 2043,4749.43 2043,4683.05C2043,4616.68 1989.11,4562.79 1922.73,4562.79Z" style="fill:white;"/>
                <path d="M1922.73,4450.98C2050.81,4450.98 2154.8,4554.97 2154.8,4683.05C2154.8,4811.14 2050.81,4915.12 1922.73,4915.12C1794.65,4915.12 1690.66,4811.14 1690.66,4683.05C1690.66,4554.97 1794.65,4450.98 1922.73,4450.98ZM1922.73,4486.29C1814.13,4486.29 1725.97,4574.46 1725.97,4683.05C1725.97,4791.65 1814.13,4879.82 1922.73,4879.82C2031.33,4879.82 2119.49,4791.65 2119.49,4683.05C2119.49,4574.46 2031.33,4486.29 1922.73,4486.29ZM1922.73,4527.48C2008.59,4527.48 2078.3,4597.19 2078.3,4683.05C2078.3,4768.91 2008.59,4838.62 1922.73,4838.62C1836.87,4838.62 1767.16,4768.91 1767.16,4683.05C1767.16,4597.19 1836.87,4527.48 1922.73,4527.48ZM1922.73,4562.79C1856.35,4562.79 1802.47,4616.68 1802.47,4683.05C1802.47,4749.43 1856.35,4803.32 1922.73,4803.32C1989.11,4803.32 2043,4749.43 2043,4683.05C2043,4616.68 1989.11,4562.79 1922.73,4562.79Z"/>
            </g>
            <g transform="matrix(0.354047,0,0,0.354047,2419.74,4012.04)">
                <path d="M1922.73,4450.98C2050.81,4450.98 2154.8,4554.97 2154.8,4683.05C2154.8,4811.14 2050.81,4915.12 1922.73,4915.12C1794.65,4915.12 1690.66,4811.14 1690.66,4683.05C1690.66,4554.97 1794.65,4450.98 1922.73,4450.98ZM1922.73,4562.79C1856.35,4562.79 1802.47,4616.68 1802.47,4683.05C1802.47,4749.43 1856.35,4803.32 1922.73,4803.32C1989.11,4803.32 2043,4749.43 2043,4683.05C2043,4616.68 1989.11,4562.79 1922.73,4562.79Z" style="fill:white;"/>
                <path d="M1922.73,4450.98C2050.81,4450.98 2154.8,4554.97 2154.8,4683.05C2154.8,4811.14 2050.81,4915.12 1922.73,4915.12C1794.65,4915.12 1690.66,4811.14 1690.66,4683.05C1690.66,4554.97 1794.65,4450.98 1922.73,4450.98ZM1922.73,4486.29C1814.13,4486.29 1725.97,4574.46 1725.97,4683.05C1725.97,4791.65 1814.13,4879.82 1922.73,4879.82C2031.33,4879.82 2119.49,4791.65 2119.49,4683.05C2119.49,4574.46 2031.33,4486.29 1922.73,4486.29ZM1922.73,4527.48C2008.59,4527.48 2078.3,4597.19 2078.3,4683.05C2078.3,4768.91 2008.59,4838.62 1922.73,4838.62C1836.87,4838.62 1767.16,4768.91 1767.16,4683.05C1767.16,4597.19 1836.87,4527.48 1922.73,4527.48ZM1922.73,4562.79C1856.35,4562.79 1802.47,4616.68 1802.47,4683.05C1802.47,4749.43 1856.35,4803.32 1922.73,4803.32C1989.11,4803.32 2043,4749.43 2043,4683.05C2043,4616.68 1989.11,4562.79 1922.73,4562.79Z"/>
            </g>
            <g transform="matrix(0.354047,0,0,0.354047,1472.78,4013.04)">
                <path d="M1922.73,4450.98C2050.81,4450.98 2154.8,4554.97 2154.8,4683.05C2154.8,4811.14 2050.81,4915.12 1922.73,4915.12C1794.65,4915.12 1690.66,4811.14 1690.66,4683.05C1690.66,4554.97 1794.65,4450.98 1922.73,4450.98ZM1922.73,4562.79C1856.35,4562.79 1802.47,4616.68 1802.47,4683.05C1802.47,4749.43 1856.35,4803.32 1922.73,4803.32C1989.11,4803.32 2043,4749.43 2043,4683.05C2043,4616.68 1989.11,4562.79 1922.73,4562.79Z" style="fill:white;"/>
                <path d="M1922.73,4450.98C2050.81,4450.98 2154.8,4554.97 2154.8,4683.05C2154.8,4811.14 2050.81,4915.12 1922.73,4915.12C1794.65,4915.12 1690.66,4811.14 1690.66,4683.05C1690.66,4554.97 1794.65,4450.98 1922.73,4450.98ZM1922.73,4486.29C1814.13,4486.29 1725.97,4574.46 1725.97,4683.05C1725.97,4791.65 1814.13,4879.82 1922.73,4879.82C2031.33,4879.82 2119.49,4791.65 2119.49,4683.05C2119.49,4574.46 2031.33,4486.29 1922.73,4486.29ZM1922.73,4527.48C2008.59,4527.48 2078.3,4597.19 2078.3,4683.05C2078.3,4768.91 2008.59,4838.62 1922.73,4838.62C1836.87,4838.62 1767.16,4768.91 1767.16,4683.05C1767.16,4597.19 1836.87,4527.48 1922.73,4527.48ZM1922.73,4562.79C1856.35,4562.79 1802.47,4616.68 1802.47,4683.05C1802.47,4749.43 1856.35,4803.32 1922.73,4803.32C1989.11,4803.32 2043,4749.43 2043,4683.05C2043,4616.68 1989.11,4562.79 1922.73,4562.79Z"/>
            </g>
            <g transform="matrix(0.354047,0,0,0.354047,1662.17,4021.49)">
                <path d="M1922.73,4450.98C2050.81,4450.98 2154.8,4554.97 2154.8,4683.05C2154.8,4811.14 2050.81,4915.12 1922.73,4915.12C1794.65,4915.12 1690.66,4811.14 1690.66,4683.05C1690.66,4554.97 1794.65,4450.98 1922.73,4450.98ZM1922.73,4562.79C1856.35,4562.79 1802.47,4616.68 1802.47,4683.05C1802.47,4749.43 1856.35,4803.32 1922.73,4803.32C1989.11,4803.32 2043,4749.43 2043,4683.05C2043,4616.68 1989.11,4562.79 1922.73,4562.79Z" style="fill:white;"/>
                <path d="M1922.73,4450.98C2050.81,4450.98 2154.8,4554.97 2154.8,4683.05C2154.8,4811.14 2050.81,4915.12 1922.73,4915.12C1794.65,4915.12 1690.66,4811.14 1690.66,4683.05C1690.66,4554.97 1794.65,4450.98 1922.73,4450.98ZM1922.73,4486.29C1814.13,4486.29 1725.97,4574.46 1725.97,4683.05C1725.97,4791.65 1814.13,4879.82 1922.73,4879.82C2031.33,4879.82 2119.49,4791.65 2119.49,4683.05C2119.49,4574.46 2031.33,4486.29 1922.73,4486.29ZM1922.73,4527.48C2008.59,4527.48 2078.3,4597.19 2078.3,4683.05C2078.3,4768.91 2008.59,4838.62 1922.73,4838.62C1836.87,4838.62 1767.16,4768.91 1767.16,4683.05C1767.16,4597.19 1836.87,4527.48 1922.73,4527.48ZM1922.73,4562.79C1856.35,4562.79 1802.47,4616.68 1802.47,4683.05C1802.47,4749.43 1856.35,4803.32 1922.73,4803.32C1989.11,4803.32 2043,4749.43 2043,4683.05C2043,4616.68 1989.11,4562.79 1922.73,4562.79Z"/>
            </g>
            <g transform="matrix(0.24116,-0.0163843,0.0151587,0.22312,2532.6,4833.92)">
                <g transform="matrix(321.285,0,0,321.285,5237.5,4873.83)">
                </g>
                <text x="3159.11px" y="4873.83px" style="font-family:'Urbanist-Black', 'Urbanist', sans-serif;font-weight:900;font-size:321.285px;">T<tspan x="3348.67px 3583.21px 3891.64px " y="4873.83px 4873.83px 4873.83px ">OWE</tspan>R B<tspan x="4536.46px " y="4873.83px ">E</tspan>LLE</text>
            </g>
        </g>
    </g>
</svg>
